# Blender 4.2.1 LTS
# www.blender.org
mtllib shape_03.mtl
o Cone
v 0.000000 0.773990 1.803482
v 0.351094 0.774116 1.768902
v 0.688695 0.774492 1.666493
v 0.999830 0.775102 1.500190
v 1.272542 0.775922 1.276383
v 1.496352 0.776922 1.003674
v 1.662657 0.778063 0.692543
v 1.765067 0.779301 0.354945
v 1.799647 0.780588 0.003855
v 1.765067 0.781876 -0.347234
v 1.662657 0.783113 -0.684832
v 1.496352 0.784254 -0.995963
v 1.272542 0.785254 -1.268672
v 0.999830 0.786075 -1.492479
v 0.688695 0.786684 -1.658782
v 0.351094 0.787060 -1.761191
v 0.000000 0.787187 -1.795771
v -0.351094 0.787060 -1.761191
v -0.688695 0.786684 -1.658782
v -0.999830 0.786075 -1.492479
v -1.272542 0.785254 -1.268672
v -1.496352 0.784254 -0.995963
v -1.662657 0.783113 -0.684832
v -1.765067 0.781876 -0.347234
v -1.799647 0.780588 0.003855
v -1.765067 0.779301 0.354945
v -1.662657 0.778063 0.692543
v -1.496352 0.776922 1.003674
v -1.272542 0.775922 1.276383
v -0.999830 0.775102 1.500190
v -0.688695 0.774492 1.666493
v -0.351094 0.774116 1.768902
v 0.124479 -0.206035 0.623699
v 0.000000 -0.206053 0.635990
v 0.244140 -0.205979 0.587304
v 0.354353 -0.205889 0.528225
v 0.450864 -0.205768 0.448762
v 0.529957 -0.205621 0.352004
v 0.588599 -0.205452 0.241703
v 0.624557 -0.205270 0.122129
v 0.636479 -0.205081 -0.002103
v 0.623941 -0.204892 -0.126213
v 0.587461 -0.204710 -0.245438
v 0.528470 -0.204543 -0.355216
v 0.449255 -0.204396 -0.451359
v 0.352867 -0.204276 -0.530206
v 0.243002 -0.204187 -0.588763
v 0.123864 -0.204132 -0.624809
v 0.000000 -0.204113 -0.636977
v -0.123864 -0.204132 -0.624809
v -0.243002 -0.204187 -0.588763
v -0.352867 -0.204276 -0.530206
v -0.449255 -0.204396 -0.451359
v -0.528470 -0.204543 -0.355216
v -0.587461 -0.204710 -0.245438
v -0.623941 -0.204892 -0.126213
v -0.636479 -0.205081 -0.002103
v -0.624557 -0.205270 0.122129
v -0.588599 -0.205452 0.241703
v -0.529957 -0.205621 0.352004
v -0.450864 -0.205768 0.448762
v -0.354353 -0.205889 0.528225
v -0.244140 -0.205979 0.587304
v -0.124479 -0.206035 0.623699
v -0.315366 0.774780 1.587949
v 0.618614 0.775117 1.495961
v 0.315366 0.774780 1.587949
v 0.000000 0.774666 1.619009
v 0.898088 0.775665 1.346580
v 1.143049 0.776402 1.145548
v 1.344083 0.777300 0.900590
v 0.898088 0.785521 -1.341555
v 1.143049 0.784784 -1.140523
v 1.344083 0.783886 -0.895565
v 1.493465 0.782861 -0.616094
v 1.616515 0.780593 0.002513
v 1.585454 0.781749 -0.312850
v 1.585454 0.779437 0.317875
v -1.344083 0.783886 -0.895565
v -0.898088 0.785521 -1.341555
v -1.143049 0.784784 -1.140523
v 0.315366 0.786406 -1.582924
v 0.000000 0.786520 -1.613984
v -0.315366 0.786406 -1.582924
v -0.618614 0.786069 -1.490936
v -1.616515 0.780593 0.002513
v -1.585454 0.781749 -0.312850
v -1.585454 0.779437 0.317875
v -0.898088 0.775665 1.346580
v -1.344083 0.777300 0.900590
v -1.493465 0.778325 0.621119
v -1.143049 0.776402 1.145548
v 1.493465 0.778325 0.621119
v -1.493465 0.782861 -0.616094
v 0.618614 0.786069 -1.490936
v -0.618614 0.775117 1.495961
v 0.383444 -0.204495 -0.386231
v 0.451042 -0.204620 -0.304164
v 0.501373 -0.204763 -0.210462
v 0.532972 -0.205241 0.103228
v 0.543166 -0.205080 -0.002787
v 0.532487 -0.204918 -0.108705
v 0.502269 -0.205397 0.205259
v -0.208310 -0.205846 0.500117
v 0.106209 -0.205894 0.531164
v 0.000000 -0.205910 0.541649
v -0.106209 -0.205894 0.531164
v 0.208310 -0.205846 0.500117
v 0.302353 -0.205769 0.449717
v 0.384711 -0.205666 0.381924
v -0.543166 -0.205080 -0.002787
v -0.532972 -0.205241 0.103228
v -0.532487 -0.204918 -0.108705
v -0.502269 -0.205397 0.205259
v -0.384711 -0.205666 0.381924
v -0.452212 -0.205540 0.299372
v -0.501373 -0.204763 -0.210462
v -0.383444 -0.204495 -0.386231
v -0.207414 -0.204317 -0.503528
v -0.301183 -0.204393 -0.453539
v 0.207414 -0.204317 -0.503528
v 0.105725 -0.204270 -0.534301
v 0.000000 -0.204254 -0.544689
v -0.105725 -0.204270 -0.534301
v 0.452212 -0.205540 0.299372
v -0.451042 -0.204620 -0.304164
v 0.301183 -0.204393 -0.453539
v -0.302353 -0.205769 0.449717
vn 0.0635 -0.7644 0.6416
vn 0.1880 -0.7643 0.6169
vn 0.3053 -0.7640 0.5684
vn 0.4109 -0.7637 0.4979
vn 0.5008 -0.7633 0.4082
vn 0.5714 -0.7628 0.3027
vn 0.6202 -0.7622 0.1853
vn 0.6451 -0.7617 0.0607
vn 0.6453 -0.7611 -0.0663
vn 0.6206 -0.7605 -0.1911
vn 0.5721 -0.7599 -0.3086
vn 0.5015 -0.7594 -0.4144
vn 0.4117 -0.7590 -0.5044
vn 0.3059 -0.7587 -0.5751
vn 0.1884 -0.7585 -0.6239
vn 0.0636 -0.7583 -0.6487
vn -0.0636 -0.7583 -0.6487
vn -0.1884 -0.7585 -0.6239
vn -0.3059 -0.7587 -0.5751
vn -0.4117 -0.7590 -0.5044
vn -0.5015 -0.7594 -0.4144
vn -0.5721 -0.7599 -0.3086
vn -0.6206 -0.7605 -0.1911
vn -0.6453 -0.7611 -0.0663
vn -0.6451 -0.7617 0.0607
vn -0.6202 -0.7622 0.1853
vn -0.5714 -0.7628 0.3027
vn -0.5008 -0.7633 0.4082
vn -0.4109 -0.7637 0.4979
vn -0.3053 -0.7640 0.5684
vn -0.0000 1.0000 0.0037
vn -0.1880 -0.7643 0.6169
vn -0.0635 -0.7644 0.6416
vn -0.0000 -1.0000 -0.0015
vn -0.0664 0.7379 -0.6716
vn -0.1967 0.7378 -0.6457
vn -0.3194 0.7376 -0.5949
vn -0.4299 0.7372 -0.5212
vn -0.5239 0.7368 -0.4273
vn -0.5978 0.7363 -0.3169
vn -0.6488 0.7358 -0.1941
vn -0.6748 0.7352 -0.0638
vn -0.6749 0.7346 0.0692
vn -0.6491 0.7340 0.1996
vn -0.5983 0.7335 0.3225
vn -0.5245 0.7330 0.4331
vn -0.4305 0.7326 0.5273
vn -0.3199 0.7322 0.6012
vn -0.1970 0.7320 0.6522
vn -0.0665 0.7319 0.6782
vn 0.0665 0.7319 0.6782
vn 0.1970 0.7320 0.6522
vn 0.3199 0.7322 0.6012
vn 0.4305 0.7326 0.5273
vn 0.5245 0.7330 0.4331
vn 0.5983 0.7335 0.3225
vn 0.6491 0.7340 0.1996
vn 0.6749 0.7346 0.0692
vn 0.6748 0.7352 -0.0638
vn 0.6488 0.7358 -0.1941
vn 0.5978 0.7363 -0.3169
vn 0.5239 0.7368 -0.4273
vn 0.4299 0.7372 -0.5212
vn 0.3194 0.7376 -0.5949
vn 0.1967 0.7378 -0.6457
vn 0.0664 0.7379 -0.6716
vt 0.296822 0.485388
vt 0.250000 0.490000
vt 0.250000 0.335096
vt 0.266601 0.333456
vt 0.282558 0.328603
vt 0.341844 0.471731
vt 0.297256 0.320724
vt 0.383337 0.449553
vt 0.310127 0.310127
vt 0.419706 0.419706
vt 0.449553 0.383337
vt 0.320675 0.297223
vt 0.471731 0.341844
vt 0.328495 0.282514
vt 0.485388 0.296822
vt 0.333291 0.266568
vt 0.490000 0.250000
vt 0.334880 0.250000
vt 0.333208 0.233449
vt 0.485388 0.203178
vt 0.471731 0.158156
vt 0.328344 0.217549
vt 0.449553 0.116663
vt 0.320477 0.202909
vt 0.419706 0.080294
vt 0.309912 0.190088
vt 0.383337 0.050447
vt 0.297058 0.179573
vt 0.341844 0.028269
vt 0.282407 0.171763
vt 0.296822 0.014612
vt 0.266518 0.166956
vt 0.250000 0.165334
vt 0.250000 0.010000
vt 0.233482 0.166956
vt 0.203178 0.014612
vt 0.158156 0.028269
vt 0.217593 0.171763
vt 0.116663 0.050447
vt 0.202942 0.179573
vt 0.080294 0.080294
vt 0.190088 0.190088
vt 0.179523 0.202909
vt 0.050447 0.116663
vt 0.171656 0.217549
vt 0.028269 0.158156
vt 0.166792 0.233449
vt 0.014612 0.203178
vt 0.010000 0.250000
vt 0.165120 0.250000
vt 0.166709 0.266568
vt 0.014612 0.296822
vt 0.171505 0.282514
vt 0.028269 0.341844
vt 0.179325 0.297223
vt 0.050447 0.383337
vt 0.189873 0.310127
vt 0.080294 0.419706
vt 0.202744 0.320724
vt 0.116663 0.449553
vt 0.217442 0.328603
vt 0.158156 0.471731
vt 0.630231 0.070575
vt 0.667502 0.050653
vt 0.658156 0.028269
vt 0.616663 0.050447
vt 0.580294 0.080294
vt 0.550447 0.116663
vt 0.528269 0.158156
vt 0.514612 0.203178
vt 0.510000 0.250000
vt 0.514612 0.296822
vt 0.528269 0.341844
vt 0.550447 0.383337
vt 0.580294 0.419706
vt 0.616663 0.449553
vt 0.658156 0.471731
vt 0.703178 0.485388
vt 0.750000 0.490000
vt 0.796822 0.485388
vt 0.841844 0.471731
vt 0.883337 0.449553
vt 0.919706 0.419706
vt 0.949553 0.383337
vt 0.971731 0.341844
vt 0.985388 0.296822
vt 0.990000 0.250000
vt 0.985388 0.203178
vt 0.971731 0.158156
vt 0.949553 0.116663
vt 0.919706 0.080294
vt 0.883337 0.050447
vt 0.841844 0.028269
vt 0.832498 0.050653
vt 0.869769 0.070575
vt 0.902436 0.097384
vt 0.929246 0.130052
vt 0.949168 0.167323
vt 0.961435 0.207764
vt 0.965577 0.249821
vt 0.961435 0.291878
vt 0.949168 0.332319
vt 0.929246 0.369589
vt 0.902436 0.402257
vt 0.869769 0.429067
vt 0.832498 0.448989
vt 0.792057 0.461256
vt 0.750000 0.465399
vt 0.707943 0.461256
vt 0.667502 0.448989
vt 0.630231 0.429067
vt 0.597564 0.402257
vt 0.570754 0.369589
vt 0.550832 0.332319
vt 0.538565 0.291878
vt 0.534422 0.249821
vt 0.538565 0.207764
vt 0.550832 0.167323
vt 0.570754 0.130052
vt 0.597564 0.097384
vt 0.796822 0.014612
vt 0.750000 0.010000
vt 0.703178 0.014612
vt 0.707943 0.038385
vt 0.750000 0.034243
vt 0.792057 0.038385
vt 0.233399 0.333456
vt 0.203178 0.485388
vt 0.750000 0.556935
vt 0.763216 0.558233
vt 0.765483 0.546920
vt 0.750000 0.545398
vt 0.734517 0.546920
vt 0.719625 0.551425
vt 0.705892 0.558745
vt 0.712352 0.568329
vt 0.724073 0.562080
vt 0.736784 0.558233
vt 0.693843 0.568601
vt 0.683941 0.580619
vt 0.676567 0.594341
vt 0.672007 0.609245
vt 0.670440 0.624759
vt 0.671930 0.640288
vt 0.676425 0.655235
vt 0.683755 0.669022
vt 0.693642 0.681117
vt 0.705706 0.691050
vt 0.719482 0.698435
vt 0.734440 0.702985
vt 0.750000 0.704521
vt 0.765560 0.702985
vt 0.780517 0.698435
vt 0.794294 0.691050
vt 0.806358 0.681117
vt 0.816245 0.669022
vt 0.823575 0.655235
vt 0.828070 0.640288
vt 0.829560 0.624759
vt 0.827993 0.609245
vt 0.823433 0.594341
vt 0.816059 0.580619
vt 0.806157 0.568601
vt 0.794108 0.558745
vt 0.780375 0.551425
vt 0.775927 0.562080
vt 0.787648 0.568329
vt 0.797930 0.576742
vt 0.806380 0.587001
vt 0.812672 0.598713
vt 0.816561 0.611433
vt 0.817896 0.624673
vt 0.816621 0.637925
vt 0.812784 0.650679
vt 0.806527 0.662443
vt 0.798089 0.672762
vt 0.787794 0.681237
vt 0.776039 0.687537
vt 0.763276 0.691418
vt 0.750000 0.692728
vt 0.736724 0.691418
vt 0.723961 0.687537
vt 0.712206 0.681236
vt 0.701911 0.672763
vt 0.693474 0.662443
vt 0.687216 0.650679
vt 0.683378 0.637925
vt 0.682104 0.624673
vt 0.683439 0.611433
vt 0.687328 0.598714
vt 0.693620 0.587001
vt 0.702069 0.576742
vt 0.250000 0.322606
vt 0.250000 0.465578
vt 0.292057 0.461435
vt 0.264164 0.321207
vt 0.277780 0.317067
vt 0.332498 0.449168
vt 0.290322 0.310346
vt 0.369769 0.429246
vt 0.301305 0.301305
vt 0.402436 0.402436
vt 0.429246 0.369769
vt 0.310307 0.290296
vt 0.449168 0.332498
vt 0.316982 0.277745
vt 0.461435 0.292057
vt 0.321077 0.264138
vt 0.465578 0.250000
vt 0.322436 0.250000
vt 0.461435 0.207943
vt 0.321012 0.235875
vt 0.316863 0.222305
vt 0.449168 0.167502
vt 0.310151 0.209809
vt 0.429246 0.130231
vt 0.301136 0.198864
vt 0.402436 0.097564
vt 0.369769 0.070754
vt 0.290166 0.189888
vt 0.332498 0.050832
vt 0.277661 0.183221
vt 0.292057 0.038565
vt 0.264099 0.179118
vt 0.250000 0.034422
vt 0.250000 0.177732
vt 0.207943 0.038565
vt 0.235901 0.179118
vt 0.222339 0.183221
vt 0.167502 0.050832
vt 0.209834 0.189888
vt 0.130231 0.070754
vt 0.198864 0.198864
vt 0.097564 0.097564
vt 0.070754 0.130231
vt 0.189849 0.209809
vt 0.050832 0.167502
vt 0.183137 0.222305
vt 0.038565 0.207943
vt 0.178988 0.235875
vt 0.034422 0.250000
vt 0.177564 0.250000
vt 0.038565 0.292057
vt 0.178923 0.264138
vt 0.183018 0.277745
vt 0.050832 0.332498
vt 0.189693 0.290296
vt 0.070754 0.369769
vt 0.198695 0.301305
vt 0.097564 0.402436
vt 0.130231 0.429246
vt 0.209678 0.310346
vt 0.167502 0.449168
vt 0.222220 0.317067
vt 0.207943 0.461435
vt 0.235836 0.321207
s 0
f 2/1/1 1/2/1 34/3/1 33/4/1
f 35/5/2 3/6/2 2/1/2 33/4/2
f 36/7/3 4/8/3 3/6/3 35/5/3
f 37/9/4 5/10/4 4/8/4 36/7/4
f 6/11/5 5/10/5 37/9/5 38/12/5
f 7/13/6 6/11/6 38/12/6 39/14/6
f 8/15/7 7/13/7 39/14/7 40/16/7
f 9/17/8 8/15/8 40/16/8 41/18/8
f 42/19/9 10/20/9 9/17/9 41/18/9
f 11/21/10 10/20/10 42/19/10 43/22/10
f 12/23/11 11/21/11 43/22/11 44/24/11
f 13/25/12 12/23/12 44/24/12 45/26/12
f 14/27/13 13/25/13 45/26/13 46/28/13
f 15/29/14 14/27/14 46/28/14 47/30/14
f 16/31/15 15/29/15 47/30/15 48/32/15
f 49/33/16 17/34/16 16/31/16 48/32/16
f 50/35/17 18/36/17 17/34/17 49/33/17
f 19/37/18 18/36/18 50/35/18 51/38/18
f 20/39/19 19/37/19 51/38/19 52/40/19
f 21/41/20 20/39/20 52/40/20 53/42/20
f 54/43/21 22/44/21 21/41/21 53/42/21
f 55/45/22 23/46/22 22/44/22 54/43/22
f 56/47/23 24/48/23 23/46/23 55/45/23
f 25/49/24 24/48/24 56/47/24 57/50/24
f 58/51/25 26/52/25 25/49/25 57/50/25
f 59/53/26 27/54/26 26/52/26 58/51/26
f 60/55/27 28/56/27 27/54/27 59/53/27
f 61/57/28 29/58/28 28/56/28 60/55/28
f 62/59/29 30/60/29 29/58/29 61/57/29
f 63/61/30 31/62/30 30/60/30 62/59/30
f 80/63/31 85/64/31 19/65/31 20/66/31 21/67/31 22/68/31 23/69/31 24/70/31 25/71/31 26/72/31 27/73/31 28/74/31 29/75/31 30/76/31 31/77/31 32/78/31 1/79/31 2/80/31 3/81/31 4/82/31 5/83/31 6/84/31 7/85/31 8/86/31 9/87/31 10/88/31 11/89/31 12/90/31 13/91/31 14/92/31 15/93/31 95/94/31 72/95/31 73/96/31 74/97/31 75/98/31 77/99/31 76/100/31 78/101/31 93/102/31 71/103/31 70/104/31 69/105/31 66/106/31 67/107/31 68/108/31 65/109/31 96/110/31 89/111/31 92/112/31 90/113/31 91/114/31 88/115/31 86/116/31 87/117/31 94/118/31 79/119/31 81/120/31
f 15/93/31 16/121/31 17/122/31 18/123/31 19/65/31 85/64/31 84/124/31 83/125/31 82/126/31 95/94/31
f 64/127/32 32/128/32 31/62/32 63/61/32
f 1/2/33 32/128/33 64/127/33 34/3/33
f 123/129/34 124/130/34 50/131/34 49/132/34 48/133/34 47/134/34 46/135/34 127/136/34 121/137/34 122/138/34
f 127/136/34 46/135/34 45/139/34 44/140/34 43/141/34 42/142/34 41/143/34 40/144/34 39/145/34 38/146/34 37/147/34 36/148/34 35/149/34 33/150/34 34/151/34 64/152/34 63/153/34 62/154/34 61/155/34 60/156/34 59/157/34 58/158/34 57/159/34 56/160/34 55/161/34 54/162/34 53/163/34 52/164/34 51/165/34 50/131/34 124/130/34 119/166/34 120/167/34 118/168/34 126/169/34 117/170/34 113/171/34 111/172/34 112/173/34 114/174/34 116/175/34 115/176/34 128/177/34 104/178/34 107/179/34 106/180/34 105/181/34 108/182/34 109/183/34 110/184/34 125/185/34 103/186/34 100/187/34 101/188/34 102/189/34 99/190/34 98/191/34 97/192/34
f 106/193/35 68/194/35 67/195/35 105/196/35
f 108/197/36 105/196/36 67/195/36 66/198/36
f 109/199/37 108/197/37 66/198/37 69/200/37
f 110/201/38 109/199/38 69/200/38 70/202/38
f 71/203/39 125/204/39 110/201/39 70/202/39
f 93/205/40 103/206/40 125/204/40 71/203/40
f 78/207/41 100/208/41 103/206/41 93/205/41
f 78/207/42 76/209/42 101/210/42 100/208/42
f 76/209/43 77/211/43 102/212/43 101/210/43
f 99/213/44 102/212/44 77/211/44 75/214/44
f 98/215/45 99/213/45 75/214/45 74/216/45
f 97/217/46 98/215/46 74/216/46 73/218/46
f 97/217/47 73/218/47 72/219/47 127/220/47
f 95/221/48 121/222/48 127/220/48 72/219/48
f 82/223/49 122/224/49 121/222/49 95/221/49
f 82/223/50 83/225/50 123/226/50 122/224/50
f 83/225/51 84/227/51 124/228/51 123/226/51
f 119/229/52 124/228/52 84/227/52 85/230/52
f 120/231/53 119/229/53 85/230/53 80/232/53
f 118/233/54 120/231/54 80/232/54 81/234/54
f 81/234/55 79/235/55 126/236/55 118/233/55
f 79/235/56 94/237/56 117/238/56 126/236/56
f 94/237/57 87/239/57 113/240/57 117/238/57
f 113/240/58 87/239/58 86/241/58 111/242/58
f 111/242/59 86/241/59 88/243/59 112/244/59
f 114/245/60 112/244/60 88/243/60 91/246/60
f 116/247/61 114/245/61 91/246/61 90/248/61
f 115/249/62 116/247/62 90/248/62 92/250/62
f 92/250/63 89/251/63 128/252/63 115/249/63
f 89/251/64 96/253/64 104/254/64 128/252/64
f 96/253/65 65/255/65 107/256/65 104/254/65
f 107/256/66 65/255/66 68/194/66 106/193/66
