# Blender 4.2.1 LTS
# www.blender.org
mtllib shape_01.mtl
o Cube
v -4.708128 -0.151130 1.000000
v -4.708128 -0.151130 -0.177307
v -4.708128 1.000000 -0.177307
v -3.394867 -0.151130 1.000000
v -3.394867 -0.151130 -0.177307
v -3.394867 1.000000 -0.177307
v -4.708128 0.000000 1.000000
v -3.394867 0.000000 1.000000
v -4.708128 1.000000 0.000000
v -3.394867 1.000000 0.000000
v -3.394867 0.879463 0.007291
v -3.394867 0.760684 0.029058
v -3.394867 0.645395 0.064984
v -3.394867 0.535277 0.114544
v -3.394867 0.431935 0.177016
v -3.394867 0.336877 0.251489
v -3.394867 0.251489 0.336877
v -3.394867 0.177016 0.431935
v -3.394867 0.114544 0.535277
v -3.394867 0.064984 0.645395
v -3.394867 0.029058 0.760684
v -3.394867 0.007291 0.879463
v -4.708128 0.007291 0.879463
v -4.708128 0.029058 0.760684
v -4.708128 0.064984 0.645395
v -4.708128 0.114544 0.535277
v -4.708128 0.177016 0.431935
v -4.708128 0.251489 0.336877
v -4.708128 0.336877 0.251489
v -4.708128 0.431935 0.177016
v -4.708128 0.535277 0.114544
v -4.708128 0.645395 0.064984
v -4.708128 0.760684 0.029058
v -4.708128 0.879463 0.007291
vn 1.0000 -0.0000 -0.0000
vn -0.0000 -0.0000 -1.0000
vn -0.0000 -0.0000 1.0000
vn -1.0000 -0.0000 -0.0000
vn -0.0000 0.0604 0.9982
vn -0.0000 0.9982 0.0604
vn -0.0000 1.0000 -0.0000
vn -0.0000 -1.0000 -0.0000
vn -0.0000 0.1803 0.9836
vn -0.0000 0.2975 0.9547
vn -0.0000 0.4104 0.9119
vn -0.0000 0.5173 0.8558
vn -0.0000 0.6167 0.7872
vn -0.0000 0.7071 0.7071
vn -0.0000 0.7872 0.6167
vn -0.0000 0.8558 0.5173
vn -0.0000 0.9119 0.4104
vn -0.0000 0.9547 0.2975
vn -0.0000 0.9836 0.1803
vt 0.500000 0.750000
vt 0.375000 0.750000
vt 0.000000 0.000000
vt 0.625000 0.500000
vt 0.625000 0.625000
vt 0.609933 0.625000
vt 0.595086 0.625000
vt 0.580674 0.625000
vt 0.566910 0.625000
vt 0.553992 0.625000
vt 0.542110 0.625000
vt 0.500000 0.667110
vt 0.500000 0.678992
vt 0.500000 0.691910
vt 0.500000 0.705674
vt 0.500000 0.720086
vt 0.500000 0.734933
vt 0.875000 0.500000
vt 0.500000 1.000000
vt 0.375000 1.000000
vt 0.875000 0.625000
vt 0.500000 0.015067
vt 0.500000 0.029914
vt 0.500000 0.044326
vt 0.500000 0.058090
vt 0.500000 0.071008
vt 0.500000 0.082890
vt 0.626329 0.293439
vt 0.661976 0.340968
vt 0.700729 0.392638
vt 0.742023 0.447698
vt 0.785257 0.505342
vt 0.829799 0.564732
s 0
f 8/1/1 4/2/1 5/3/1 6/4/1 10/5/1 11/6/1 12/7/1 13/8/1 14/9/1 15/10/1 16/11/1 17/12/1 18/13/1 19/14/1 20/15/1 21/16/1 22/17/1
f 5/3/2 2/3/2 3/18/2 6/4/2
f 4/2/3 8/1/3 7/19/3 1/20/3
f 9/21/4 3/18/4 2/3/4 1/20/4 7/19/4 23/22/4 24/23/4 25/24/4 26/25/4 27/26/4 28/27/4 29/28/4 30/29/4 31/30/4 32/31/4 33/32/4 34/33/4
f 10/5/5 9/21/5 34/33/5 11/6/5
f 8/1/6 22/17/6 23/22/6 7/19/6
f 6/4/7 3/18/7 9/21/7 10/5/7
f 2/3/8 5/3/8 4/2/8 1/20/8
f 11/6/9 34/33/9 33/32/9 12/7/9
f 12/7/10 33/32/10 32/31/10 13/8/10
f 13/8/11 32/31/11 31/30/11 14/9/11
f 14/9/12 31/30/12 30/29/12 15/10/12
f 15/10/13 30/29/13 29/28/13 16/11/13
f 16/11/14 29/28/14 28/27/14 17/12/14
f 17/12/15 28/27/15 27/26/15 18/13/15
f 18/13/16 27/26/16 26/25/16 19/14/16
f 19/14/17 26/25/17 25/24/17 20/15/17
f 20/15/18 25/24/18 24/23/18 21/16/18
f 21/16/19 24/23/19 23/22/19 22/17/19
